<mxfile host="app.diagrams.net" modified="2024-01-02T13:01:27.195Z" agent="Mozilla/5.0 (Windows NT 10.0; Win64; x64) AppleWebKit/537.36 (KHTML, like Gecko) Chrome/120.0.0.0 Safari/537.36" version="22.1.16" etag="tNT84XFb02N1K0DqFj6P" type="github">
  <diagram name="第 1 页" id="vkFP6MB2Z4UJuTu8_u3O">
    <mxGraphModel>
      <root>
        <mxCell id="0" />
        <mxCell id="1" parent="0" />
      </root>
    </mxGraphModel>
  </diagram>
</mxfile>
